<svg xmlns="http://www.w3.org/2000/svg" width="1200" height="800" viewBox="0 0 1200 800" role="img" aria-label="AI automation architecture">
  <defs>
    <linearGradient id="bg" x1="0" y1="0" x2="1" y2="1">
      <stop offset="0%" stop-color="#0d1622"/>
      <stop offset="100%" stop-color="#13263f"/>
    </linearGradient>
    <linearGradient id="line" x1="0" y1="0" x2="1" y2="0">
      <stop offset="0%" stop-color="#8dc2ff"/>
      <stop offset="100%" stop-color="#5f95db"/>
    </linearGradient>
  </defs>
  <rect width="1200" height="800" fill="url(#bg)" rx="24"/>
  <g opacity="0.24" stroke="#3e5f87" stroke-width="1">
    <path d="M0 120h1200M0 240h1200M0 360h1200M0 480h1200M0 600h1200M0 720h1200"/>
    <path d="M120 0v800M240 0v800M360 0v800M480 0v800M600 0v800M720 0v800M840 0v800M960 0v800M1080 0v800"/>
  </g>
  <g fill="#122235" stroke="#436991" stroke-width="2">
    <rect x="120" y="120" width="220" height="96" rx="14"/>
    <rect x="490" y="120" width="220" height="96" rx="14"/>
    <rect x="860" y="120" width="220" height="96" rx="14"/>
    <rect x="120" y="360" width="220" height="96" rx="14"/>
    <rect x="490" y="360" width="220" height="96" rx="14"/>
    <rect x="860" y="360" width="220" height="96" rx="14"/>
    <rect x="490" y="600" width="220" height="96" rx="14"/>
  </g>
  <g stroke="url(#line)" stroke-width="4" fill="none" stroke-linecap="round">
    <path d="M340 168h150"/>
    <path d="M710 168h150"/>
    <path d="M230 216v144"/>
    <path d="M600 216v144"/>
    <path d="M970 216v144"/>
    <path d="M340 408h150"/>
    <path d="M710 408h150"/>
    <path d="M600 456v144"/>
  </g>
  <g fill="#d8e8ff" font-family="IBM Plex Mono, monospace" font-size="28" opacity="0.9">
    <text x="152" y="175">Input Events</text>
    <text x="528" y="175">Policy Engine</text>
    <text x="900" y="175">Orchestrator</text>
    <text x="170" y="415">Agent A</text>
    <text x="540" y="415">Agent B</text>
    <text x="910" y="415">Agent C</text>
    <text x="538" y="655">Audit Trail</text>
  </g>
</svg>
