<svg xmlns="http://www.w3.org/2000/svg" width="1200" height="800" viewBox="0 0 1200 800" role="img" aria-label="Security and trust systems">
  <defs>
    <linearGradient id="bg2" x1="0" y1="0" x2="1" y2="1">
      <stop offset="0%" stop-color="#0a1019"/>
      <stop offset="100%" stop-color="#15243a"/>
    </linearGradient>
  </defs>
  <rect width="1200" height="800" rx="24" fill="url(#bg2)"/>
  <circle cx="600" cy="420" r="220" fill="none" stroke="#2f4f75" stroke-width="2"/>
  <circle cx="600" cy="420" r="160" fill="none" stroke="#40638e" stroke-width="2"/>
  <circle cx="600" cy="420" r="100" fill="none" stroke="#5c86bb" stroke-width="2"/>
  <g fill="#132338" stroke="#4a709c" stroke-width="2">
    <rect x="510" y="330" width="180" height="180" rx="18"/>
    <rect x="145" y="378" width="190" height="92" rx="12"/>
    <rect x="865" y="378" width="190" height="92" rx="12"/>
    <rect x="510" y="92" width="180" height="92" rx="12"/>
    <rect x="510" y="656" width="180" height="92" rx="12"/>
  </g>
  <g stroke="#82b5f2" stroke-width="4" fill="none" stroke-linecap="round">
    <path d="M335 424h175"/>
    <path d="M690 424h175"/>
    <path d="M600 184v146"/>
    <path d="M600 510v146"/>
  </g>
  <g fill="#d9e9ff" font-family="IBM Plex Mono, monospace" font-size="26">
    <text x="545" y="425">Trust Core</text>
    <text x="177" y="435">Identity</text>
    <text x="909" y="435">Policy</text>
    <text x="548" y="148">Telemetry</text>
    <text x="533" y="712">Compliance</text>
  </g>
</svg>
